<svg width="125" height="106" viewBox="0 0 125 106" fill="none" xmlns="http://www.w3.org/2000/svg">
<path d="M115.385 19.4652H64.4892L48.0769 3.05292C47.1869 2.1567 46.1278 1.44608 44.961 0.96226C43.7943 0.478438 42.5431 0.231039 41.28 0.234409H9.61538C7.06523 0.234409 4.61951 1.24746 2.81628 3.05069C1.01305 4.85392 0 7.29963 0 9.84979V96.7608C0.00476936 99.2118 0.980916 101.561 2.71454 103.293C4.44817 105.026 6.79788 106 9.2488 106.004H115.919C118.327 106 120.635 105.043 122.337 103.34C124.039 101.638 124.997 99.3304 125 96.9231V29.0806C125 26.5304 123.987 24.0847 122.184 22.2815C120.38 20.4782 117.935 19.4652 115.385 19.4652ZM9.61538 9.84979H41.28L50.8954 19.4652H9.61538V9.84979Z" fill="#AF52DE" fill-opacity="0.6"/>
</svg>
