<svg width="24" height="24" viewBox="0 0 24 24" fill="none" xmlns="http://www.w3.org/2000/svg">
<path d="M14.7373 2.01172L14.8135 2.01562C14.9895 2.03366 15.1547 2.11334 15.2783 2.24219L20.3428 7.52051C20.4768 7.66017 20.5518 7.84647 20.5518 8.04004V17.3379C20.5566 19.8185 18.5607 21.8388 16.0811 21.8643L16.0732 21.8652V21.8643H8.20898C8.1722 21.8652 8.12506 21.8662 8.0752 21.8662L8.07617 21.8672L8.07324 21.8662L8.07227 21.8672V21.8662C5.56085 21.8794 3.51436 19.8556 3.5 17.3438V6.49023C3.50026 4.01754 5.50456 2.01198 7.97852 2.01172H14.7373ZM5 17.335L5.00488 17.4922C5.09568 19.1035 6.43537 20.3773 8.06738 20.3672H8.07227C8.10103 20.3672 8.13062 20.3663 8.1709 20.3652L8.19043 20.3643H16.0732C17.7258 20.3433 19.055 18.9954 19.0518 17.3408V8.34082L14.417 3.51172H7.97852C6.33324 3.51198 5.00026 4.8457 5 6.49023V17.335Z" fill="black"/>
<path d="M13.7236 5.65918V2.75C13.7236 2.33579 14.0594 2 14.4736 2C14.8878 2 15.2236 2.33579 15.2236 2.75V5.65918L15.2334 5.8457C15.3266 6.76448 16.1003 7.48172 17.0439 7.48438H19.7969L19.873 7.48828C20.2513 7.52658 20.5469 7.84597 20.5469 8.23438C20.5467 8.62263 20.2513 8.94221 19.873 8.98047L19.7969 8.98438H17.0391C15.2633 8.97913 13.8163 7.58392 13.7275 5.83008L13.7236 5.65918Z" fill="black"/>
<path d="M9.58002 10.6513C9.87291 10.3584 10.3477 10.3584 10.6406 10.6513L14.1064 14.1171C14.3993 14.41 14.3993 14.8848 14.1064 15.1777C13.8135 15.4706 13.3387 15.4706 13.0458 15.1777L9.58002 11.7119C9.28713 11.419 9.28713 10.9442 9.58002 10.6513Z" fill="black"/>
<path d="M13.0468 10.6513C13.3396 10.3584 13.8144 10.3585 14.1073 10.6513C14.4002 10.9442 14.4002 11.4189 14.1073 11.7118L10.6415 15.1776C10.3486 15.4705 9.87385 15.4705 9.58095 15.1776C9.28815 14.8847 9.28809 14.4099 9.58095 14.1171L13.0468 10.6513Z" fill="black"/>
</svg>
