<svg width="24" height="24" viewBox="0 0 24 24" fill="none" xmlns="http://www.w3.org/2000/svg">
<path d="M20.5 12C20.5 7.30527 16.6938 3.5 12 3.5C7.30521 3.5 3.5 7.30521 3.5 12C3.5 16.6938 7.30527 20.5 12 20.5C16.6938 20.5 20.5 16.6938 20.5 12ZM22 12C22 17.5222 17.5222 22 12 22C6.47673 22 2 17.5222 2 12C2 6.47679 6.47679 2 12 2C17.5222 2 22 6.47673 22 12Z" fill="black"/>
<path d="M11.2451 12.623V8.2041C11.2451 7.78989 11.5809 7.4541 11.9951 7.4541C12.4093 7.4541 12.7451 7.78989 12.7451 8.2041V12.623C12.7451 13.0373 12.4093 13.373 11.9951 13.373C11.5809 13.373 11.2451 13.0373 11.2451 12.623Z" fill="black"/>
<path d="M12.0049 14.7959C12.5572 14.7959 13.0049 15.2436 13.0049 15.7959C13.0049 16.3482 12.5572 16.7959 12.0049 16.7959H11.9951C11.4428 16.7959 10.9951 16.3482 10.9951 15.7959C10.9951 15.2436 11.4428 14.7959 11.9951 14.7959H12.0049Z" fill="black"/>
</svg>
