<svg width="24" height="24" viewBox="0 0 24 24" fill="none" xmlns="http://www.w3.org/2000/svg">
<path d="M9.25 6.5C9.25 5.82981 9.24705 5.3343 9.19727 4.93945C9.14823 4.55045 9.06286 4.35423 8.96778 4.23633C8.88106 4.1289 8.71828 4.00282 8.32911 3.90527C7.92777 3.8047 7.34771 3.75 6.5 3.75C5.6523 3.75 5.07224 3.8047 4.6709 3.90527C4.28173 4.00282 4.11895 4.1289 4.03223 4.23633C3.93715 4.35423 3.85178 4.55045 3.80274 4.93945C3.75296 5.3343 3.75 5.82981 3.75 6.5C3.75 7.1728 3.75052 7.66853 3.79786 8.06543C3.84448 8.45628 3.92729 8.65082 4.01954 8.7666C4.10285 8.87106 4.26225 8.99704 4.65333 9.09473C5.05654 9.19541 5.64186 9.25 6.5 9.25C7.35815 9.25 7.94347 9.19541 8.34668 9.09473C8.73776 8.99704 8.89716 8.87106 8.98047 8.7666C9.07272 8.65082 9.15553 8.45628 9.20215 8.06543C9.24949 7.66853 9.25 7.1728 9.25 6.5ZM10.75 6.5C10.75 7.13973 10.7517 7.73773 10.6914 8.24316C10.6304 8.75438 10.4971 9.27108 10.1533 9.70215C9.80057 10.1445 9.30405 10.4014 8.70997 10.5498C8.12777 10.6952 7.3974 10.75 6.5 10.75C5.60261 10.75 4.87224 10.6952 4.29004 10.5498C3.69596 10.4014 3.19944 10.1445 2.84668 9.70215C2.50295 9.27108 2.36958 8.75438 2.3086 8.24316C2.24831 7.73773 2.25 7.13973 2.25 6.5C2.25 5.85767 2.25049 5.25943 2.31446 4.75195C2.37917 4.23864 2.5184 3.72384 2.86426 3.29492C3.21852 2.85565 3.71353 2.59867 4.30567 2.4502C4.88607 2.30473 5.61184 2.25 6.5 2.25C7.38817 2.25 8.11394 2.30473 8.69434 2.4502C9.28648 2.59867 9.78149 2.85565 10.1357 3.29492C10.4816 3.72384 10.6208 4.23864 10.6856 4.75195C10.7495 5.25943 10.75 5.85767 10.75 6.5Z" fill="black"/>
<path d="M20.25 6.5C20.25 5.82981 20.247 5.3343 20.1973 4.93945C20.1482 4.55045 20.0629 4.35423 19.9678 4.23633C19.8811 4.1289 19.7183 4.00282 19.3291 3.90527C18.9278 3.8047 18.3477 3.75 17.5 3.75C16.6523 3.75 16.0722 3.8047 15.6709 3.90527C15.2817 4.00282 15.119 4.1289 15.0322 4.23633C14.9371 4.35423 14.8518 4.55045 14.8027 4.93945C14.753 5.3343 14.75 5.82981 14.75 6.5C14.75 7.1728 14.7505 7.66853 14.7979 8.06543C14.8445 8.45628 14.9273 8.65082 15.0195 8.7666C15.1028 8.87106 15.2622 8.99704 15.6533 9.09473C16.0565 9.19541 16.6419 9.25 17.5 9.25C18.3581 9.25 18.9435 9.19541 19.3467 9.09473C19.7378 8.99704 19.8972 8.87106 19.9805 8.7666C20.0727 8.65082 20.1555 8.45628 20.2022 8.06543C20.2495 7.66853 20.25 7.1728 20.25 6.5ZM21.75 6.5C21.75 7.13973 21.7517 7.73773 21.6914 8.24316C21.6304 8.75438 21.4971 9.27108 21.1533 9.70215C20.8006 10.1445 20.3041 10.4014 19.71 10.5498C19.1278 10.6952 18.3974 10.75 17.5 10.75C16.6026 10.75 15.8722 10.6952 15.29 10.5498C14.696 10.4014 14.1994 10.1445 13.8467 9.70215C13.5029 9.27108 13.3696 8.75438 13.3086 8.24316C13.2483 7.73773 13.25 7.13973 13.25 6.5C13.25 5.85767 13.2505 5.25943 13.3145 4.75195C13.3792 4.23864 13.5184 3.72384 13.8643 3.29492C14.2185 2.85565 14.7135 2.59867 15.3057 2.4502C15.8861 2.30473 16.6118 2.25 17.5 2.25C18.3882 2.25 19.1139 2.30473 19.6943 2.4502C20.2865 2.59867 20.7815 2.85565 21.1357 3.29492C21.4816 3.72384 21.6208 4.23864 21.6856 4.75195C21.7495 5.25943 21.75 5.85767 21.75 6.5Z" fill="black"/>
<path d="M9.25 17.5C9.25 16.8298 9.24705 16.3343 9.19727 15.9395C9.14823 15.5504 9.06286 15.3542 8.96778 15.2363C8.88106 15.1289 8.71828 15.0028 8.32911 14.9053C7.92777 14.8047 7.34771 14.75 6.5 14.75C5.6523 14.75 5.07224 14.8047 4.6709 14.9053C4.28173 15.0028 4.11895 15.1289 4.03223 15.2363C3.93715 15.3542 3.85178 15.5504 3.80274 15.9395C3.75296 16.3343 3.75 16.8298 3.75 17.5C3.75 18.1728 3.75052 18.6685 3.79786 19.0654C3.84448 19.4563 3.92729 19.6508 4.01954 19.7666C4.10285 19.8711 4.26225 19.997 4.65333 20.0947C5.05654 20.1954 5.64186 20.25 6.5 20.25C7.35815 20.25 7.94347 20.1954 8.34668 20.0947C8.73776 19.997 8.89716 19.8711 8.98047 19.7666C9.07272 19.6508 9.15553 19.4563 9.20215 19.0654C9.24949 18.6685 9.25 18.1728 9.25 17.5ZM10.75 17.5C10.75 18.1397 10.7517 18.7377 10.6914 19.2432C10.6304 19.7544 10.4971 20.2711 10.1533 20.7021C9.80057 21.1445 9.30405 21.4014 8.70997 21.5498C8.12777 21.6952 7.3974 21.75 6.5 21.75C5.60261 21.75 4.87224 21.6952 4.29004 21.5498C3.69596 21.4014 3.19944 21.1445 2.84668 20.7021C2.50295 20.2711 2.36958 19.7544 2.3086 19.2432C2.24831 18.7377 2.25 18.1397 2.25 17.5C2.25 16.8577 2.25049 16.2594 2.31446 15.752C2.37917 15.2386 2.5184 14.7238 2.86426 14.2949C3.21852 13.8556 3.71353 13.5987 4.30567 13.4502C4.88607 13.3047 5.61184 13.25 6.5 13.25C7.38817 13.25 8.11394 13.3047 8.69434 13.4502C9.28648 13.5987 9.78149 13.8556 10.1357 14.2949C10.4816 14.7238 10.6208 15.2386 10.6856 15.752C10.7495 16.2594 10.75 16.8577 10.75 17.5Z" fill="black"/>
<path d="M20.25 17.5C20.25 16.8298 20.247 16.3343 20.1973 15.9395C20.1482 15.5504 20.0629 15.3542 19.9678 15.2363C19.8811 15.1289 19.7183 15.0028 19.3291 14.9053C18.9278 14.8047 18.3477 14.75 17.5 14.75C16.6523 14.75 16.0722 14.8047 15.6709 14.9053C15.2817 15.0028 15.119 15.1289 15.0322 15.2363C14.9371 15.3542 14.8518 15.5504 14.8027 15.9395C14.753 16.3343 14.75 16.8298 14.75 17.5C14.75 18.1728 14.7505 18.6685 14.7979 19.0654C14.8445 19.4563 14.9273 19.6508 15.0195 19.7666C15.1028 19.8711 15.2622 19.997 15.6533 20.0947C16.0565 20.1954 16.6419 20.25 17.5 20.25C18.3581 20.25 18.9435 20.1954 19.3467 20.0947C19.7378 19.997 19.8972 19.8711 19.9805 19.7666C20.0727 19.6508 20.1555 19.4563 20.2022 19.0654C20.2495 18.6685 20.25 18.1728 20.25 17.5ZM21.75 17.5C21.75 18.1397 21.7517 18.7377 21.6914 19.2432C21.6304 19.7544 21.4971 20.2711 21.1533 20.7021C20.8006 21.1445 20.3041 21.4014 19.71 21.5498C19.1278 21.6952 18.3974 21.75 17.5 21.75C16.6026 21.75 15.8722 21.6952 15.29 21.5498C14.696 21.4014 14.1994 21.1445 13.8467 20.7021C13.5029 20.2711 13.3696 19.7544 13.3086 19.2432C13.2483 18.7377 13.25 18.1397 13.25 17.5C13.25 16.8577 13.2505 16.2594 13.3145 15.752C13.3792 15.2386 13.5184 14.7238 13.8643 14.2949C14.2185 13.8556 14.7135 13.5987 15.3057 13.4502C15.8861 13.3047 16.6118 13.25 17.5 13.25C18.3882 13.25 19.1139 13.3047 19.6943 13.4502C20.2865 13.5987 20.7815 13.8556 21.1357 14.2949C21.4816 14.7238 21.6208 15.2386 21.6856 15.752C21.7495 16.2594 21.75 16.8577 21.75 17.5Z" fill="black"/>
</svg>
