<svg width="24" height="24" viewBox="0 0 24 24" fill="none" xmlns="http://www.w3.org/2000/svg">
<path d="M15.7158 15.4736C16.13 15.4736 16.4658 15.8094 16.4658 16.2236C16.4658 16.6378 16.13 16.9736 15.7158 16.9736H8.49609C8.08188 16.9736 7.74609 16.6378 7.74609 16.2236C7.74609 15.8094 8.08188 15.4736 8.49609 15.4736H15.7158Z" fill="black"/>
<path d="M15.7158 11.2871C16.13 11.2871 16.4658 11.6229 16.4658 12.0371C16.4658 12.4513 16.13 12.7871 15.7158 12.7871H8.49609C8.08188 12.7871 7.74609 12.4513 7.74609 12.0371C7.74609 11.6229 8.08188 11.2871 8.49609 11.2871H15.7158Z" fill="black"/>
<path d="M11.252 7.11035C11.6662 7.11035 12.002 7.44614 12.002 7.86035C12.002 8.27457 11.6662 8.61035 11.252 8.61035H8.49707C8.08286 8.61035 7.74707 8.27457 7.74707 7.86035C7.74707 7.44614 8.08286 7.11035 8.49707 7.11035H11.252Z" fill="black"/>
<path d="M19.666 7.35742C19.666 6.1206 19.2859 5.169 18.668 4.53125C18.0529 3.89645 17.1327 3.50004 15.9092 3.5H15.5791C15.3692 3.50011 15.0696 3.50079 14.71 3.50098C13.9901 3.50135 13.0297 3.50145 12.0693 3.50195C10.1944 3.50293 8.31748 3.50288 8.22363 3.50293L8.22461 3.50391C7.01312 3.51137 6.10126 3.9093 5.49121 4.54297C4.87838 5.17971 4.50098 6.12717 4.50098 7.35742V16.5527C4.50098 17.7897 4.88135 18.7412 5.49902 19.3789C6.11382 20.0135 7.03352 20.4101 8.25684 20.4102H8.58691C8.79677 20.4101 9.09645 20.4093 9.45605 20.4092C10.1759 20.4089 11.1364 20.4086 12.0967 20.4082C13.9659 20.4075 15.8369 20.4073 15.9414 20.4072L16.165 20.4014C17.2658 20.3492 18.1036 19.9617 18.6758 19.3672C19.2888 18.7301 19.666 17.7828 19.666 16.5527V7.35742ZM21.166 16.5527C21.166 18.0924 20.6885 19.4391 19.7568 20.4072C18.8222 21.3783 17.4986 21.8977 15.9502 21.9072H14.7393C14.0178 21.9075 13.0569 21.9078 12.0967 21.9082C11.1365 21.9086 10.1768 21.9089 9.45703 21.9092C9.09712 21.9093 8.79683 21.9101 8.58691 21.9102H8.25781C6.69743 21.9101 5.36305 21.3946 4.4209 20.4219C3.48182 19.4521 3.00098 18.0996 3.00098 16.5527V7.35742C3.00098 5.81767 3.47849 4.47094 4.41016 3.50293C5.3446 2.53208 6.66755 2.01344 8.21582 2.00391H8.55371C8.76471 2.0038 9.06537 2.00312 9.42578 2.00293C10.1471 2.00255 11.1081 2.00245 12.0684 2.00195C13.0287 2.00145 13.9891 2.00135 14.709 2.00098C15.0689 2.00079 15.3692 2.00011 15.5791 2H15.9092C17.4694 2.00004 18.8028 2.51479 19.7451 3.4873C20.6847 4.45706 21.166 5.81025 21.166 7.35742V16.5527Z" fill="black"/>
</svg>
