<svg width="24" height="24" viewBox="0 0 24 24" fill="none" xmlns="http://www.w3.org/2000/svg">
<path d="M7.22733 6.16776L17.8339 16.7744C18.1268 17.0673 18.1268 17.5421 17.8339 17.835C17.541 18.1279 17.0662 18.1279 16.7733 17.835L6.16667 7.22842C5.87377 6.93552 5.87377 6.46065 6.16667 6.16776C6.45956 5.87486 6.93443 5.87486 7.22733 6.16776Z" fill="black"/>
<path d="M6.16678 16.7737L16.7734 6.16705C17.0663 5.87416 17.5411 5.87416 17.834 6.16705C18.1269 6.45994 18.1269 6.93482 17.834 7.22771L7.22744 17.8343C6.93455 18.1272 6.45967 18.1272 6.16678 17.8343C5.87389 17.5414 5.87389 17.0665 6.16678 16.7737Z" fill="black"/>
</svg>
