<svg width="16" height="16" viewBox="0 0 16 16" fill="none" xmlns="http://www.w3.org/2000/svg">
<path d="M5.27873 2.33268C4.37296 2.33268 3.64122 2.61355 3.14071 3.07943C2.64424 3.54157 2.33472 4.22291 2.33472 5.10937L2.33472 10.8887C2.33472 11.7751 2.64428 12.4563 3.14071 12.9186C3.64124 13.3847 4.37299 13.666 5.27873 13.666H10.724C11.6298 13.666 12.3615 13.3847 12.8621 12.9186C13.3585 12.4563 13.6681 11.7751 13.6681 10.8887V5.10937C13.6681 4.22676 13.3589 3.54532 12.8621 3.08203C12.3612 2.61512 11.6292 2.33268 10.724 2.33268H5.27873ZM10.724 1.33268C11.8369 1.33268 12.8271 1.68219 13.5437 2.35026C14.2642 3.02197 14.6681 3.97881 14.6681 5.10937V10.8887C14.6681 12.0222 14.2647 12.9797 13.5437 13.651C12.8267 14.3186 11.8363 14.666 10.724 14.666H5.27873C4.16648 14.666 3.17602 14.3186 2.45907 13.651C1.73808 12.9797 1.33472 12.0222 1.33472 10.8887L1.33472 5.10937C1.33472 3.97593 1.73815 3.01883 2.45907 2.34766C3.17605 1.68024 4.16653 1.33268 5.27873 1.33268H10.724Z" fill="#5A5960"/>
<path d="M10.7253 8.5H5.27734C5.0012 8.5 4.77734 8.27614 4.77734 8C4.77734 7.72386 5.0012 7.5 5.27734 7.5H10.7253C11.0014 7.5 11.2253 7.72386 11.2253 8C11.2253 8.27614 11.0014 8.5 10.7253 8.5Z" fill="#5A5960"/>
<path d="M7.86466 5.85487C7.66911 5.66002 7.66855 5.34348 7.86335 5.14784C8.05821 4.9523 8.37475 4.95174 8.57039 5.14654L11.0795 7.64524C11.1737 7.73906 11.2266 7.86644 11.2266 7.99941C11.2266 8.13238 11.1737 8.25974 11.0795 8.35357L8.57039 10.8523L8.53197 10.8868C8.33529 11.0463 8.04595 11.0342 7.86335 10.851C7.68071 10.6675 7.66963 10.3777 7.83015 10.1817L7.86466 10.1439L10.0177 7.99941L7.86466 5.85487Z" fill="#5A5960"/>
</svg>
