<svg width="20" height="20" viewBox="0 0 20 20" fill="none" xmlns="http://www.w3.org/2000/svg">
<path d="M16.6707 9.80469C16.6706 6.0131 13.5963 2.93945 9.80469 2.93945C6.01318 2.93958 2.93958 6.01318 2.93945 9.80469C2.93945 13.5963 6.0131 16.6706 9.80469 16.6707C13.5964 16.6707 16.6707 13.5964 16.6707 9.80469ZM17.9207 9.80469C17.9207 14.2867 14.2867 17.9207 9.80469 17.9207C5.32275 17.9206 1.68945 14.2867 1.68945 9.80469C1.68958 5.32282 5.32282 1.68958 9.80469 1.68945C14.2867 1.68945 17.9206 5.32275 17.9207 9.80469Z" fill="#8C8B93"/>
<path d="M14.571 14.963C14.7996 14.7338 15.1619 14.719 15.4076 14.919L15.4548 14.9614L18.3918 17.8902L18.4349 17.9382C18.6353 18.1835 18.6211 18.5458 18.3926 18.7748C18.1642 19.0036 17.8025 19.0183 17.5569 18.8188L17.5088 18.7756L14.5726 15.8468L14.5295 15.7996C14.3288 15.5544 14.3426 15.1922 14.571 14.963Z" fill="#8C8B93"/>
</svg>
