<svg width="24" height="24" viewBox="0 0 24 24" fill="none" xmlns="http://www.w3.org/2000/svg">
<path d="M2 16.3623V8.04785C2.00004 6.35125 2.53255 4.84235 3.5498 3.75098C4.57253 2.65389 6.02984 2.03908 7.75293 2.03906H11.4922L11.5684 2.04297C11.9467 2.08123 12.2422 2.40063 12.2422 2.78906C12.2422 3.1775 11.9467 3.49689 11.5684 3.53516L11.4922 3.53906H7.75293C6.40129 3.53908 5.35744 4.01276 4.64746 4.77441C3.93205 5.54195 3.50004 6.66264 3.5 8.04785V16.3623C3.50005 17.7484 3.92949 18.8696 4.64355 19.6367C5.352 20.3978 6.39627 20.8711 7.75293 20.8711H16.5771C17.9341 20.8711 18.978 20.3975 19.6865 19.6367C20.4007 18.8696 20.831 17.7484 20.8311 16.3623V12.334C20.8311 11.9198 21.1669 11.584 21.5811 11.584C21.9952 11.584 22.331 11.9198 22.3311 12.334V16.3623C22.331 18.0578 21.8015 19.5664 20.7852 20.6582C19.763 21.7561 18.3048 22.3711 16.5771 22.3711H7.75293C6.02567 22.3711 4.56792 21.7561 3.5459 20.6582C2.52964 19.5664 2.00005 18.0579 2 16.3623Z" fill="black"/>
<path d="M15.8879 2.80577C17.0784 1.73147 18.8948 1.73135 20.0852 2.80577L20.2024 2.9171L21.4192 4.1339C22.6429 5.35763 22.6436 7.3434 21.4192 8.56651L21.4182 8.56554L13.9104 16.0753C13.3629 16.6227 12.62 16.9307 11.845 16.9308H8.09886C7.89671 16.9308 7.7029 16.8489 7.56175 16.7042C7.42076 16.5596 7.34391 16.3641 7.34886 16.1622L7.44261 12.3819L7.46312 12.1026C7.5415 11.458 7.83357 10.8545 8.2971 10.3907L15.7707 2.9171L15.8879 2.80577ZM19.1418 3.97862C18.5037 3.34114 17.4695 3.34114 16.8313 3.97862L9.35862 11.4513C9.10088 11.709 8.95188 12.0554 8.94261 12.4191L8.86839 15.4308H11.845C12.2217 15.4307 12.5833 15.2812 12.8498 15.0148L20.3586 7.50499C20.9961 6.8682 20.9966 5.83371 20.3586 5.19542L19.1418 3.97765V3.97862Z" fill="black"/>
<path d="M14.6347 4.07221C14.9276 3.77932 15.4024 3.77932 15.6953 4.07221L20.2617 8.63862L20.3124 8.69526C20.5528 8.98984 20.5363 9.42455 20.2617 9.69916C19.987 9.97378 19.5523 9.99028 19.2578 9.74994L19.2011 9.69916L14.6347 5.13276C14.3418 4.83986 14.3418 4.3651 14.6347 4.07221Z" fill="black"/>
</svg>
