<svg width="24" height="24" viewBox="0 0 24 24" fill="none" xmlns="http://www.w3.org/2000/svg">
<path d="M17.9316 7.94531C17.9316 5.59441 15.6471 2.75 12 2.75C8.35295 2.75 6.06836 5.59441 6.06836 7.94531C6.06834 8.90157 5.94595 9.63659 5.74805 10.25C5.55059 10.8619 5.28797 11.3227 5.05371 11.7148C4.81388 12.1163 4.62633 12.4127 4.48438 12.7842C4.35126 13.1325 4.25345 13.5643 4.25 14.1865C4.30657 14.7878 4.47709 15.2243 4.73535 15.5586C4.99998 15.9011 5.40097 16.1932 6.00391 16.4287C7.24658 16.914 9.17784 17.0977 12 17.0977C14.8223 17.0977 16.7544 16.9115 17.9971 16.4248C18.6002 16.1886 19.001 15.896 19.2656 15.5537C19.5238 15.2198 19.6927 14.7845 19.749 14.1865C19.7456 13.5643 19.6487 13.1325 19.5156 12.7842C19.3737 12.4127 19.1861 12.1163 18.9463 11.7148C18.712 11.3227 18.4494 10.8619 18.252 10.25C18.054 9.63659 17.9317 8.90157 17.9316 7.94531ZM19.4316 7.94531C19.4317 8.76879 19.5357 9.34557 19.6787 9.78906C19.8223 10.234 20.014 10.5764 20.2344 10.9453C20.4492 11.3049 20.717 11.7282 20.916 12.249C21.1215 12.7867 21.25 13.4105 21.25 14.2207C21.25 14.2422 21.2489 14.2637 21.2471 14.2852C21.1744 15.1228 20.9256 15.8581 20.4521 16.4707C19.9806 17.0806 19.3292 17.5137 18.5439 17.8213C17.0094 18.4223 14.817 18.5977 12 18.5977C9.18442 18.5977 6.99255 18.4246 5.45801 17.8252C4.67253 17.5184 4.02067 17.0862 3.54883 16.4756C3.07499 15.8622 2.82584 15.1252 2.75293 14.2852C2.75107 14.2637 2.75001 14.2422 2.75 14.2207C2.75 13.4105 2.87852 12.7867 3.08398 12.249C3.28303 11.7282 3.55079 11.3049 3.76562 10.9453C3.98604 10.5764 4.17772 10.234 4.32129 9.78906C4.46434 9.34557 4.56834 8.76879 4.56836 7.94531C4.56836 4.73427 7.5566 1.25 12 1.25C16.4434 1.25 19.4316 4.73427 19.4316 7.94531Z" fill="black"/>
<path d="M13.8317 20.3554C14.1089 20.048 14.5826 20.0229 14.8903 20.2998C15.1981 20.577 15.2232 21.0515 14.946 21.3593C13.2869 23.2016 10.6397 23.2259 8.96163 21.3584C8.68482 21.0503 8.71017 20.5766 9.01827 20.2998C9.32637 20.023 9.80002 20.0483 10.0769 20.3564C11.1532 21.5542 12.7626 21.5426 13.8317 20.3554Z" fill="black"/>
</svg>
