<svg width="24" height="24" viewBox="0 0 24 24" fill="none" xmlns="http://www.w3.org/2000/svg">
<path d="M4.06445 18.2725C4.06445 17.489 4.34865 16.8277 4.85059 16.3066C5.33476 15.8041 5.99216 15.4607 6.71094 15.2197C8.14089 14.7403 10.0357 14.5957 11.9854 14.5957C13.9467 14.5957 15.8416 14.7458 17.2695 15.2314C17.9875 15.4756 18.6424 15.8223 19.124 16.3271C19.6229 16.85 19.9042 17.5115 19.9043 18.293C19.9043 19.0762 19.62 19.7378 19.1182 20.2588C18.6342 20.7612 17.9773 21.1047 17.2588 21.3457C15.8292 21.8252 13.935 21.9697 11.9854 21.9697C10.0241 21.9697 8.12843 21.8204 6.7002 21.335C5.98212 21.0908 5.3275 20.7432 4.8457 20.2383C4.34667 19.7153 4.06448 19.0542 4.06445 18.2725ZM5.56445 18.2725C5.56447 18.6615 5.6929 18.954 5.93066 19.2031C6.1857 19.4704 6.59431 19.714 7.18262 19.9141C8.36745 20.3169 10.0582 20.4697 11.9854 20.4697C13.9028 20.4697 15.5932 20.3222 16.7812 19.9238C17.3715 19.7258 17.7822 19.4835 18.0381 19.2178C18.2761 18.9706 18.4043 18.6801 18.4043 18.293C18.4042 17.9043 18.2757 17.6124 18.0381 17.3633C17.7831 17.096 17.3745 16.8515 16.7861 16.6514C15.6017 16.2486 13.9121 16.0957 11.9854 16.0957C10.0674 16.0957 8.37588 16.2432 7.1875 16.6416C6.59718 16.8395 6.18662 17.082 5.93066 17.3477C5.69269 17.5948 5.56445 17.8851 5.56445 18.2725Z" fill="black"/>
<path d="M15.8662 7.41016C15.8662 5.2667 14.1288 3.52857 11.9854 3.52832C9.84158 3.52832 8.10257 5.26674 8.10257 7.41016V7.41211C8.09533 9.54732 9.8212 11.2848 11.9551 11.292H11.9854C14.1284 11.2917 15.866 9.55359 15.8662 7.41016ZM17.294 7.41016C17.2937 10.3422 14.9178 12.7195 11.9854 12.7197H11.9502C9.02699 12.7098 6.66493 10.3311 6.67484 7.40723C6.67617 4.47558 9.05381 2.10059 11.9854 2.10059C14.9178 2.10084 17.294 4.47773 17.294 7.41016Z" fill="black"/>
</svg>
