<svg width="24" height="24" viewBox="0 0 24 24" fill="none" xmlns="http://www.w3.org/2000/svg">
<path d="M20.5 12.001C20.5 7.30619 16.6948 3.50098 12 3.50098C7.30521 3.50098 3.5 7.30619 3.5 12.001C3.5 16.6958 7.30521 20.501 12 20.501C16.6948 20.501 20.5 16.6958 20.5 12.001ZM22 12.001C22 17.5242 17.5232 22.001 12 22.001C6.47679 22.001 2 17.5242 2 12.001C2 6.47776 6.47679 2.00098 12 2.00098C17.5232 2.00098 22 6.47776 22 12.001Z" fill="black"/>
<path d="M15.8154 14.2998C16.171 14.5121 16.2874 14.9725 16.0752 15.3281C15.8629 15.6837 15.4025 15.8 15.0469 15.5879L15.8154 14.2998ZM10.9111 7.84766C10.9111 7.43344 11.2469 7.09766 11.6611 7.09766C12.0753 7.09766 12.4111 7.43344 12.4111 7.84766V12.2686L15.8154 14.2998L15.4307 14.9434L15.0469 15.5879L11.2773 13.3389C11.0505 13.2036 10.9111 12.9585 10.9111 12.6943V7.84766Z" fill="black"/>
</svg>
