<svg width="24" height="24" viewBox="0 0 24 24" fill="none" xmlns="http://www.w3.org/2000/svg">
<path d="M12 2C17.5222 2 22 6.47673 22 12C22 17.5222 17.5222 22 12 22C6.47779 22 2 17.5222 2 12C2 6.47673 6.47784 2 12 2ZM16.0918 9.09668C15.7989 8.80381 15.3241 8.80384 15.0312 9.09668L10.8145 13.3125L8.97168 11.4697L8.91504 11.418C8.62044 11.1776 8.18573 11.1951 7.91113 11.4697C7.6367 11.7444 7.61911 12.1791 7.85938 12.4736L7.91113 12.5303L10.2852 14.9033C10.578 15.1961 11.0528 15.1961 11.3457 14.9033L16.0918 10.1572C16.3846 9.86435 16.3846 9.38956 16.0918 9.09668Z" fill="black"/>
</svg>
