<svg width="24" height="24" viewBox="0 0 24 24" fill="none" xmlns="http://www.w3.org/2000/svg">
<path d="M4.5 11.25L19.5 11.25C19.9142 11.25 20.25 11.5858 20.25 12C20.25 12.4142 19.9142 12.75 19.5 12.75L4.5 12.75C4.08579 12.75 3.75 12.4142 3.75 12C3.75 11.5858 4.08579 11.25 4.5 11.25Z" fill="black"/>
<path d="M11.25 19.5L11.25 4.5C11.25 4.08579 11.5858 3.75 12 3.75C12.4142 3.75 12.75 4.08579 12.75 4.5L12.75 19.5C12.75 19.9142 12.4142 20.25 12 20.25C11.5858 20.25 11.25 19.9142 11.25 19.5Z" fill="black"/>
</svg>
