<svg width="24" height="25" viewBox="0 0 24 25" fill="none" xmlns="http://www.w3.org/2000/svg">
<path d="M7.38965 10.1191H6.45605C4.83547 10.1194 3.52148 11.434 3.52148 13.0547L3.52148 17.9297C3.5217 19.549 4.83547 20.863 6.45605 20.8633H17.5869C19.2075 20.863 20.5213 19.549 20.5215 17.9297V13.0439C20.5213 11.4291 19.212 10.1192 17.5977 10.1191H16.6543C16.2402 10.119 15.9043 9.78329 15.9043 9.36914C15.9044 8.95506 16.2402 8.61924 16.6543 8.61914H17.5977C20.0409 8.61923 22.0213 10.6012 22.0215 13.0439V17.9297C22.0213 20.3777 20.0357 22.363 17.5869 22.3633H6.45605C4.00731 22.363 2.0217 20.3777 2.02148 17.9297V13.0547C2.02148 10.6056 4.00704 8.61937 6.45605 8.61914H7.38965C7.80374 8.61923 8.13957 8.95505 8.13965 9.36914C8.13965 9.7833 7.80379 10.1191 7.38965 10.1191Z" fill="#C0C0C4"/>
<path d="M11.2715 2.57617L11.2754 2.49902C11.314 2.12106 11.6333 1.82617 12.0215 1.82617C12.4096 1.82617 12.7289 2.12106 12.7676 2.49902L12.7715 2.57617V14.6172C12.7715 15.0314 12.4357 15.3672 12.0215 15.3672C11.6073 15.3672 11.2715 15.0314 11.2715 14.6172V2.57617Z" fill="#C0C0C4"/>
<path d="M8.57804 6.03519C8.30313 5.7613 8.28504 5.3273 8.52433 5.03226L8.57609 4.97464L11.4911 2.04691C11.6318 1.90561 11.823 1.82622 12.0224 1.82621C12.2218 1.82622 12.4129 1.9056 12.5536 2.04691L15.4696 4.97464C15.7619 5.26809 15.761 5.74289 15.4677 6.03519C15.1742 6.32744 14.6994 6.32659 14.4071 6.03324L12.0224 3.63968L9.63859 6.03324L9.58195 6.085C9.2879 6.32576 8.85318 6.30911 8.57804 6.03519Z" fill="#C0C0C4"/>
</svg>
