<svg width="32" height="32" viewBox="0 0 32 32" fill="none" xmlns="http://www.w3.org/2000/svg">
<path d="M5.66602 15.3652L25.666 15.3652C26.2183 15.3652 26.666 15.8129 26.666 16.3652C26.666 16.9175 26.2183 17.3652 25.666 17.3652L5.66602 17.3652C5.11373 17.3652 4.66602 16.9175 4.66602 16.3652C4.66602 15.8129 5.11373 15.3652 5.66602 15.3652Z" fill="#8C8B93"/>
<path d="M14.4381 23.6906C14.8294 24.0803 14.8304 24.7134 14.4408 25.1047C14.0511 25.496 13.418 25.497 13.0267 25.1073L4.96028 17.0761C4.77194 16.8885 4.66615 16.6335 4.66601 16.3677C4.666 16.1018 4.77184 15.8458 4.96028 15.6581L13.0267 7.62554L13.1035 7.55653C13.4969 7.23749 14.0755 7.26159 14.4408 7.62814C14.8061 7.99498 14.8282 8.57458 14.5072 8.96668L14.4381 9.04221L7.08398 16.3664L14.4381 23.6906Z" fill="#8C8B93"/>
</svg>
