<svg width="24" height="24" viewBox="0 0 24 24" fill="none" xmlns="http://www.w3.org/2000/svg">
<path d="M21 19.6924L21.0762 19.6963C21.4543 19.7346 21.7498 20.0542 21.75 20.4424C21.75 20.8308 21.4545 21.1512 21.0762 21.1895L21 21.1924H13.7471C13.3329 21.1924 12.9971 20.8566 12.9971 20.4424C12.9973 20.0284 13.333 19.6924 13.7471 19.6924H21Z" fill="black"/>
<path d="M12.2051 3.31383C13.2428 2.07383 15.0968 1.89478 16.3594 2.90367L16.3604 2.90269C16.3604 2.90269 16.3611 2.90373 16.3623 2.90465C16.3636 2.90562 16.3652 2.90698 16.3672 2.90855L16.4463 2.97008C16.4971 3.00963 16.5671 3.06425 16.6494 3.12828C16.8142 3.25641 17.029 3.42352 17.2422 3.58922C17.4556 3.75501 17.6678 3.91928 17.8262 4.04234C17.9053 4.10384 17.9715 4.15501 18.0176 4.19078C18.0368 4.20568 18.0526 4.21773 18.0645 4.22691C19.4192 5.08033 19.8419 6.85517 18.9844 8.2191L18.9854 8.22008C18.978 8.23161 18.9663 8.24897 18.9619 8.25523L18.9443 8.28062C18.9405 8.28567 18.9357 8.29028 18.9326 8.29429C18.926 8.30276 18.9179 8.31417 18.9082 8.32652C18.8884 8.35163 18.8599 8.38701 18.8242 8.43199C18.7523 8.52256 18.6481 8.65364 18.5166 8.81871C18.2533 9.14927 17.8786 9.61894 17.4307 10.18C16.5348 11.3023 15.3433 12.7934 14.1533 14.2826C12.9633 15.7718 11.7742 17.2591 10.8828 18.3744C10.4372 18.9318 10.0666 19.3969 9.80665 19.722C9.67668 19.8846 9.57451 20.0129 9.50489 20.1C9.47018 20.1434 9.44279 20.1761 9.42481 20.1986C9.41582 20.2098 9.40887 20.2192 9.40431 20.225C9.40223 20.2276 9.40051 20.2295 9.39942 20.2308L9.39845 20.2328H9.39747V20.2337C8.93932 20.8053 8.2466 21.1387 7.51173 21.1468L3.87306 21.1937C3.52178 21.1981 3.21457 20.9575 3.1338 20.6156L2.31349 17.1449C2.14578 16.4324 2.31402 15.6832 2.77442 15.1087L12.1943 3.32652L12.2051 3.31383ZM15.4268 4.07652C14.797 3.57089 13.8675 3.66474 13.3555 4.27672L3.94532 16.0462V16.0472C3.77364 16.2614 3.71169 16.5369 3.77345 16.8002L4.45509 19.6859L7.49317 19.6478H7.49513C7.78571 19.6445 8.05259 19.5123 8.22657 19.2953L8.22755 19.2943C8.2287 19.2929 8.23112 19.2903 8.23341 19.2875C8.23797 19.2818 8.24419 19.273 8.25294 19.2621C8.27089 19.2396 8.29829 19.2069 8.33302 19.1634C8.40263 19.0764 8.50482 18.9481 8.63477 18.7855C8.89468 18.4604 9.26628 17.9954 9.71192 17.4378C10.6033 16.3226 11.7926 14.8351 12.9824 13.3461C14.1724 11.8569 15.3632 10.3654 16.2588 9.24351C16.7065 8.68269 17.08 8.21404 17.3428 7.88414C17.4743 7.71909 17.5784 7.58887 17.6494 7.49937C17.6848 7.45482 17.7114 7.42076 17.7295 7.39781C18.1244 6.74204 17.9186 5.8903 17.2412 5.48082C17.2163 5.46576 17.1919 5.44886 17.169 5.43101L17.168 5.43004C17.1672 5.42942 17.1655 5.42916 17.1641 5.42808C17.1609 5.42561 17.1565 5.4211 17.1504 5.41636C17.1381 5.40679 17.1196 5.39313 17.0967 5.37535C17.0507 5.33961 16.9852 5.28827 16.9063 5.22691C16.7479 5.10388 16.5356 4.93955 16.3223 4.77379C15.8979 4.44402 15.4605 4.10412 15.4316 4.0814L15.4268 4.07652Z" fill="black"/>
<path d="M10.4258 5.54407C10.6623 5.23629 11.0908 5.1627 11.4141 5.36243L11.4776 5.40638L16.9297 9.59387L16.9883 9.6427C17.2649 9.90346 17.3038 10.3366 17.0674 10.6447C16.8308 10.9527 16.4025 11.0263 16.0791 10.8263L16.0156 10.7833L10.5635 6.59583L10.5049 6.54602C10.2286 6.28519 10.1894 5.85196 10.4258 5.54407Z" fill="black"/>
</svg>
