<svg width="16" height="16" viewBox="0 0 16 16" fill="none" xmlns="http://www.w3.org/2000/svg">
<path d="M12.9229 5.81218C13.1981 5.83437 13.4034 6.07599 13.3812 6.35124V6.3545C13.381 6.35668 13.3802 6.36004 13.3799 6.36426C13.3792 6.37282 13.3786 6.3855 13.3773 6.40202C13.3746 6.43539 13.3707 6.48468 13.3656 6.54786C13.3552 6.67446 13.3399 6.85763 13.3213 7.08301C13.284 7.53386 13.2319 8.15486 13.1735 8.83497C13.0568 10.1929 12.9134 11.7942 12.8076 12.7471C12.7476 13.2893 12.5434 13.7689 12.1703 14.1156C11.796 14.4632 11.301 14.6315 10.7477 14.6416C9.00286 14.673 7.25479 14.6752 5.50879 14.6384C4.96695 14.6272 4.48341 14.4531 4.11882 14.1058C3.75641 13.7604 3.55536 13.2853 3.49642 12.7516C3.38997 11.7905 3.24688 10.1881 3.13054 8.83106C3.07228 8.15151 3.02048 7.53169 2.9834 7.08171C2.96486 6.85669 2.95005 6.67354 2.93978 6.54721C2.93467 6.48427 2.93075 6.4353 2.92806 6.40202C2.92673 6.38555 2.9255 6.37282 2.92481 6.36426C2.92448 6.36014 2.92433 6.35667 2.92416 6.3545C2.92408 6.35349 2.9242 6.35244 2.92416 6.35189L2.92351 6.35124C2.90139 6.07608 3.10672 5.83444 3.38184 5.81218C3.657 5.79006 3.89864 5.99539 3.9209 6.27051V6.27377C3.92107 6.2759 3.92121 6.27933 3.92155 6.28353C3.92224 6.29202 3.92347 6.30472 3.92481 6.32129C3.92749 6.35448 3.93141 6.40348 3.93653 6.46648C3.94677 6.59243 3.96165 6.77455 3.98015 6.99903C4.01717 7.44827 4.06848 8.06746 4.12663 8.74577C4.2431 10.1044 4.38569 11.6947 4.49056 12.6416C4.52966 12.9951 4.65205 13.233 4.80827 13.3818C4.9622 13.5285 5.19314 13.6314 5.53028 13.6384C7.26138 13.6749 8.99594 13.6728 10.7295 13.6416C11.0902 13.635 11.3317 13.5301 11.4899 13.3831C11.6493 13.2351 11.7742 12.9981 11.8141 12.637L11.8981 11.8252C11.9876 10.9185 12.0898 9.76956 12.1774 8.74968C12.2357 8.07099 12.2874 7.45108 12.3245 7.00098C12.3431 6.77607 12.3585 6.59343 12.3688 6.46713C12.374 6.40397 12.3778 6.35457 12.3805 6.32129C12.3819 6.30472 12.3825 6.29204 12.3831 6.28353C12.3835 6.27927 12.3843 6.27592 12.3844 6.27377V6.27051C12.4067 5.99543 12.6478 5.79012 12.9229 5.81218Z" fill="#FC3232"/>
<path d="M13.8053 3.6582L13.8568 3.66081C14.1087 3.68656 14.3053 3.89943 14.3053 4.1582C14.3053 4.41698 14.1087 4.62985 13.8568 4.6556L13.8053 4.6582H2.5C2.22386 4.6582 2 4.43435 2 4.1582C2 3.88206 2.22386 3.6582 2.5 3.6582H13.8053Z" fill="#FC3232"/>
<path d="M9.56242 1.33398C10.1738 1.33402 10.7109 1.74393 10.8697 2.33724C10.8725 2.34751 10.8754 2.35807 10.8775 2.36849L11.0396 3.17904C11.0886 3.42335 11.2823 3.60858 11.5208 3.65104L11.6256 3.66016L11.677 3.66276C11.929 3.68847 12.1256 3.90135 12.1256 4.16016C12.1255 4.4189 11.929 4.63186 11.677 4.65755L11.6256 4.66016L11.4843 4.65365C10.7839 4.59181 10.1986 4.07505 10.0585 3.37565V3.375L9.90031 2.58594C9.85572 2.43692 9.71929 2.33402 9.56242 2.33398H6.74015C6.58214 2.33406 6.44446 2.43838 6.40096 2.58919L6.24406 3.375V3.37565C6.09461 4.12162 5.43888 4.66016 4.677 4.66016C4.40092 4.66016 4.17709 4.43622 4.177 4.16016C4.177 3.88401 4.40086 3.66016 4.677 3.66016C4.96175 3.66016 5.20766 3.45834 5.26359 3.17904L5.42505 2.36849C5.42714 2.35806 5.43011 2.34751 5.43286 2.33724C5.59164 1.74394 6.12876 1.33407 6.74015 1.33398H9.56242Z" fill="#FC3232"/>
</svg>
